<?xml version="1.0" encoding="UTF-8" standalone="no"?>
<!-- Created with Inkscape (http://www.inkscape.org/) -->

<svg
   width="8%"
   height="8%"
   viewBox="0 0 289.71637 353.70917"
   version="1.1"
   id="svg1"
   xml:space="preserve"
   inkscape:version="1.3.2 (091e20e, 2023-11-25, custom)"
   sodipodi:docname="logo completa.svg"
   inkscape:export-filename="..\..\Meu Drive\DEFINN\LENS\Mystic Garden\logo completa vetor.jpg"
   inkscape:export-xdpi="96"
   inkscape:export-ydpi="96"
   xmlns:inkscape="http://www.inkscape.org/namespaces/inkscape"
   xmlns:sodipodi="http://sodipodi.sourceforge.net/DTD/sodipodi-0.dtd"
   xmlns="http://www.w3.org/2000/svg"
   xmlns:svg="http://www.w3.org/2000/svg"><sodipodi:namedview
     id="namedview1"
     pagecolor="#ffffff"
     bordercolor="#000000"
     borderopacity="0.25"
     inkscape:showpageshadow="2"
     inkscape:pageopacity="0.0"
     inkscape:pagecheckerboard="0"
     inkscape:deskcolor="#d1d1d1"
     inkscape:document-units="mm"
     inkscape:zoom="0.125"
     inkscape:cx="-1180"
     inkscape:cy="-180"
     inkscape:window-width="1920"
     inkscape:window-height="1009"
     inkscape:window-x="-8"
     inkscape:window-y="-8"
     inkscape:window-maximized="1"
     inkscape:current-layer="g51-7-8"
     inkscape:export-bgcolor="#000029ff" /><defs
     id="defs1"><linearGradient
       id="swatch1"
       inkscape:swatch="solid"><stop
         style="stop-color:#ffffff;stop-opacity:1;"
         offset="0"
         id="stop1" /></linearGradient></defs><path
     style="fill:#ffffff;stroke:#ffffff;stroke-width:6.2;stroke-linejoin:round;stroke-dasharray:none;stroke-opacity:1"
     d="m 105.81698,350.2686 c 0.0495,-0.21982 1.84384,-1.90635 3.9877,-3.74781 19.32263,-16.59716 34.09825,-46.55519 32.99472,-66.8979 -0.45663,-8.41755 -1.90686,-13.33444 -5.13899,-17.4234 -6.21839,-7.86686 -17.24993,-13.57164 -27.51701,-14.22997 -3.26404,-0.20929 -8.7729,0.56729 -14.013548,1.97545 -4.74102,1.27392 -10.47001,2.25692 -15.31712,2.62814 -1.2547,0.0961 -2.87896,0.25065 -3.60947,0.34344 -1.44987,0.18417 -7.43461,-0.2881 -11.05586,-0.87243 -3.18686,-0.51423 -8.97114,-2.25878 -12.207929,-3.68191 -10.00893,-4.40067 -20.798961,-14.97633 -24.298451,-23.81576 -1.291,-3.26098 -2.2527,-5.15814 -3.50006,-6.90472 -1.10572,-1.54826 -1.07413,-3.03274 0.0627,-2.94711 0.34547,0.0262 0.60161,0.14602 0.56922,0.26668 -0.0324,0.12061 0.65008,0.84685 1.51666,1.6138 0.86657,0.76697 2.59155,2.9087 3.83327,4.75946 4.67799,6.97243 12.200741,15.09729 17.335411,18.72297 5.11608,3.61252 12.242289,6.46633 19.622239,7.85804 3.31576,0.62527 4.83507,0.72637 9.98612,0.66438 5.3823,-0.0647 6.77647,-0.20412 12.22111,-1.22153 14.989588,-2.80101 17.365148,-3.13977 22.440538,-3.20009 2.68865,-0.032 5.32839,0.0638 5.86612,0.21288 0.87444,0.24235 0.81341,0.14543 -0.57785,-0.91691 -7.79397,-5.95182 -23.623008,-12.97288 -39.670318,-17.59598 -11.41067,-3.28732 -20.64301,-5.13208 -31.962139,-6.38649 -6.17056,-0.68388 -6.76965,-0.78705 -6.44636,-1.11034 0.31514,-0.31515 5.44394,-0.65458 9.40374,-0.62239 7.604159,0.0617 22.294299,2.73678 41.062919,7.47732 12.489808,3.15465 29.769228,10.9603 37.112648,16.76495 1.61214,1.27432 1.62613,1.27838 1.3134,0.38131 -0.17385,-0.49872 -0.88826,-1.85166 -1.58756,-3.00652 -0.6993,-1.15486 -1.89394,-3.25468 -2.65476,-4.66624 -4.48948,-8.32955 -14.9288,-18.17949 -27.907978,-26.33238 -7.90776,-4.96728 -20.35885,-10.68048 -25.81057,-11.8432 -4.40696,-0.93992 -7.1429,-1.63297 -7.37922,-1.86929 -0.13414,-0.13419 -0.5495,-0.24325 -0.92292,-0.24237 -0.37343,8.9e-4 -1.33889,-0.21668 -2.14548,-0.48349 -0.8066,-0.26681 -3.27864,-0.92981 -5.493439,-1.4733 -6.87066,-1.68605 -16.06293,-5.52002 -22.398461,-9.34213 -1.9564,-1.18026 -4.21186,-2.50684 -5.01212,-2.94794 -8.22181,-4.53196 -17.90257,-17.03695 -21.7874796,-28.14377 -1.78745,-5.11025 -2.52665,-11.73957 -1.33416,-11.96517 0.39544,-0.0749 0.8493,0.87688 1.92645,4.03969 1.72397,5.06198 3.5136496,8.76846 6.1980796,12.83643 5.58684,8.46627 12.57013,14.89485 20.52584,18.89538 3.218751,1.61854 9.403311,4.04645 12.058171,4.73374 4.42881,1.14656 23.212059,5.04898 28.347919,5.88959 4.94937,0.81009 15.59359,3.98743 20.2106,6.0329 l 2.11833,0.93847 -1.46653,-1.33852 c -1.47543,-1.34663 -5.93553,-4.73201 -8.96215,-6.80258 -3.68384,-2.52019 -11.27459,-8.90523 -14.09109,-11.85289 -5.91041,-6.1856 -10.91735,-13.33221 -14.62945,-20.88111 -1.318169,-2.68061 -2.786129,-5.90698 -3.262139,-7.1697 -0.47602,-1.26272 -0.8919,-2.33159 -0.92419,-2.37522 -0.0323,-0.0437 -1.36732,0.20612 -2.96673,0.55504 -8.02782,1.75127 -17.503951,0.9123 -25.398031,-2.24865 -3.38967,-1.35727 -8.64192,-4.83469 -11.12543,-7.36595 -4.7060096,-4.79647 -8.2255996,-11.99335 -9.9380196,-20.32133 -0.94606,-4.60093 -1.17403,-13.42692 -0.47029,-18.206907 0.64494,-4.38062 1.71845,-8.22557 3.14731,-11.27279 l 1.04755,-2.23399 1.29998,0.20788 c 2.8055896,0.44862 7.9511896,3.08592 12.7881196,6.55429 5.64504,4.04784 12.48376,10.59282 17.290531,16.547797 2.84422,3.52367 7.47384,10.50432 9.10203,13.72426 l 1.30357,2.57804 0.22021,-4.38379 c 0.20229,-4.02732 1.41953,-16.09217 1.73896,-17.235817 0.075,-0.26886 0.51274,-3.4219 0.97256,-7.00677 0.76736,-5.98256 1.44291,-16.11892 1.46065,-21.91651 0.007,-2.17658 0.0608,-2.36274 0.68788,-2.36274 0.44365,0 3.138929,2.37418 7.740039,6.81796 11.69663,11.29665 17.74532,15.88181 29.05737,22.02665 5.01643,2.724987 7.7446,4.549007 11.683078,7.811187 12.0615,9.99035 21.82209,24.17502 26.80331,38.95213 l 1.26335,3.74778 0.005,-4.30565 c 0.007,-6.59239 -1.60213,-17.58423 -3.93924,-26.90294 -0.82555,-3.29168 -2.95382,-8.4757 -6.38707,-15.55752 -3.47188,-7.161497 -5.93639,-12.988057 -7.77308,-18.376997 -0.78741,-2.31029 -1.47698,-4.24585 -1.5324,-4.30127 -0.0554,-0.0554 -1.19603,0.0539 -2.53468,0.2429 -3.57476,0.50474 -9.625508,0.14498 -13.718678,-0.81581 -6.6518,-1.56126 -11.20449,-4.03432 -16.13222,-8.76315 -2.81516,-2.70155 -6.77674,-7.64609 -8.47454,-10.5773 -0.94479,-1.63114 -6.3946,-9.89006 -7.76839,-11.77258 -0.43356,-0.59411 -0.71023,-1.28359 -0.61484,-1.53218 0.38301,-0.99814 4.84264,-1.62457 11.52221,-1.61851 7.13322,0.007 10.16011,0.53269 14.30191,2.48629 2.96623,1.3991 7.29438,5.81296 14.014058,14.2916 2.91217,3.67447 5.76169,7.24905 6.33226,7.94349 l 1.03741,1.26263 0.0252,-5.49927 c 0.0516,-11.26683 2.82405,-22.47318 8.25419,-33.3634 2.7174,-5.44977 5.30883,-9.52519 10.98303,-17.2725 5.0832,-6.9404003 8.06317,-10.4286703 8.90896,-10.4286703 1.38162,0 11.5729,10.0228503 16.77199,16.4948003 4.34394,5.40744 9.05394,12.68414 11.75668,18.16336 2.41583,4.89764 5.32923,12.92624 6.2249,17.15436 0.68184,3.2187 0.95043,12.26279 0.48406,16.29977 -0.3691,3.19492 -1.78206,11.512 -2.17311,12.79142 -0.25922,0.84814 0.3621,0.69033 0.76521,-0.19436 0.43664,-0.95833 1.83686,-6.79831 2.35616,-9.82694 0.74033,-4.31766 2.63768,-12.5423 3.4761,-15.06809 1.09135,-3.28774 4.39814,-9.63011 6.44834,-12.36775 3.82709,-5.11034 8.26403,-8.70999 14.00585,-11.36288 2.64761,-1.22328 9.02759,-2.99506 14.04385,-3.90012 1.73096,-0.31232 4.75857,-1.25424 7.38724,-2.29824 2.44977,-0.97296 4.75291,-1.76902 5.11808,-1.76902 2.85287,0 -0.65804,14.47522 -6.17973,25.47845 -4.96255,9.88903 -10.90614,16.84297 -18.38378,21.50883 -3.37032,2.103 -17.99531,8.18421 -20.73689,8.6226 -0.70604,0.11297 -1.64346,0.48826 -2.08316,0.83414 -1.05385,0.82894 -4.80846,6.48946 -5.80158,8.74653 -1.54173,3.50389 -1.55475,3.4951 1.79196,1.21013 12.21977,-8.34309 32.472,-15.31786 50.45717,-17.3772 3.55056,-0.40654 6.48928,-0.50323 11.81926,-0.38886 3.90156,0.0837 7.16703,0.22548 7.25659,0.31504 0.36153,0.36154 -0.51331,15.73963 -1.15502,20.30328 -1.62058,11.524617 -3.42611,18.923107 -9.32172,38.197307 -3.69749,12.08805 -10.01197,22.15278 -19.89285,31.70745 -4.41895,4.27309 -6.39959,5.85404 -10.18201,8.12732 -2.64085,1.58719 -6.57622,3.02363 -17.85472,6.51705 -5.58111,1.72871 -8.71956,3.09066 -12.86172,5.58145 -9.20454,5.53494 -14.65827,10.02715 -18.57108,15.29686 -2.78158,3.7462 -2.72634,3.41282 -2.72634,16.45775 0,6.27348 0.12484,12.42597 0.27742,13.67214 l 0.27743,2.26579 1.70865,-3.59032 c 0.93975,-1.97466 2.47041,-4.7192 3.40146,-6.09895 8.19131,-12.139 23.36733,-23.7915 39.30872,-30.18214 0.35848,-0.14383 1.38505,-0.48978 2.28128,-0.76901 3.12232,-0.97287 10.78835,-4.28791 15.64303,-6.76459 l 4.88844,-2.49387 0.73608,-2.41034 c 0.40486,-1.3257 1.11773,-3.6569 1.58415,-5.18047 2.26763,-7.40729 5.85505,-15.35566 9.22066,-20.42953 5.21538,-7.86249 15.59079,-16.12775 25.28537,-20.14278 3.70337,-1.53377 10.10015,-3.22431 18.34059,-4.84705 5.6822,-1.11896 7.6048,-1.63683 9.5365,-2.56877 1.33071,-0.64198 2.53212,-1.09765 2.66978,-1.01255 0.99464,0.61471 -2.0836,12.58009 -5.35375,20.81064 -3.11952,7.85132 -9.73549,19.21691 -15.08407,25.91288 -4.80662,6.0175 -10.12937,10.81673 -14.2617,12.85904 -3.93543,1.94499 -7.70796,2.5717 -15.56405,2.58551 -6.86052,0.0117 -9.47057,-0.25552 -14.8283,-1.52016 -3.33852,-0.78804 -3.49848,-0.78058 -4.86486,0.22611 -1.92821,1.42061 -6.58257,3.71421 -11.26699,5.55217 -10.70295,4.19938 -14.72367,6.13318 -19.81064,9.52811 -15.58111,10.39859 -28.27044,27.05365 -30.54369,40.08938 -0.51992,2.98151 -0.60506,6.6863 -0.1781,7.75017 0.21811,0.54348 0.32636,0.40809 0.65146,-0.81475 2.79018,-10.4955 7.41499,-20.11017 13.71658,-28.51591 8.38501,-11.18479 23.46391,-20.53629 39.58631,-24.55028 7.86777,-1.95881 22.18256,-2.51932 30.96013,-1.21224 10.53228,1.56836 22.21452,5.52335 31.93781,10.81244 7.67343,4.17403 16.45777,10.47567 16.45777,11.8063 0,0.75823 -4.07118,5.75368 -7.97158,9.78133 -11.39558,11.76738 -24.76565,20.82795 -36.51326,24.74407 -9.20529,3.06867 -14.39488,3.47779 -23.95214,1.88824 -7.57497,-1.25986 -12.56017,-2.30221 -17.27373,-3.61177 -2.24053,-0.62249 -5.1736,-1.29124 -6.51793,-1.48614 -1.34432,-0.19488 -3.39747,-0.50587 -4.56255,-0.69108 -2.77393,-0.44098 -12.73053,-0.4117 -16.45775,0.0485 -3.96383,0.48929 -9.60473,1.77661 -11.31291,2.58173 -4.22105,1.98955 -6.12331,3.36387 -7.00636,5.06187 -0.63956,1.22979 -0.44704,2.8948 1.18978,10.28968 2.15949,9.75613 2.86821,15.74048 3.16478,26.7235 0.47337,17.53088 -1.97732,34.5145 -6.66645,46.19898 -1.4436,3.59722 -3.37013,7.09364 -4.84714,8.797 l -0.91931,1.06019 -20.62123,0.0804 c -16.15053,0.063 -20.60177,-0.007 -20.53145,-0.31922 z m 129.02193,-98.48695 c 10.2541,-2.19448 21.24919,-7.7465 31.24583,-15.77767 5.15877,-4.14452 15.31711,-15.26506 15.31711,-16.76799 0,-0.20995 -0.76992,-0.77007 -1.71095,-1.24471 -0.94103,-0.47463 -1.78427,-0.97022 -1.8739,-1.10133 -0.26304,-0.38483 -4.4606,-2.99393 -8.04639,-5.00142 -9.212,-5.15733 -20.20984,-8.86047 -31.28759,-10.53503 -5.0395,-0.76179 -16.60514,-0.76118 -21.60859,0.001 -16.59661,2.52865 -30.36148,9.21277 -41.66983,20.23454 -6.11686,5.96187 -10.61273,12.04334 -14.41113,19.49364 -1.62888,3.19496 -3.23218,6.9953 -3.23218,7.66131 0,0.0782 0.69661,-0.42877 1.54802,-1.12669 5.09261,-4.17468 15.11236,-9.90759 22.40535,-12.81952 12.75806,-5.09403 27.20126,-7.84518 46.22554,-8.80512 6.9213,-0.34923 8.688,-0.28286 8.688,0.3264 0,0.49385 -1.57292,0.63904 -6.89883,0.63682 -20.40907,-0.009 -50.13162,10.05748 -66.67077,22.57903 -1.65716,1.25461 -3.11517,2.45153 -3.24003,2.65979 -0.147,0.24514 -0.048,0.23388 0.2802,-0.0318 0.5504,-0.44556 9.77364,-3.65443 13.46849,-4.68581 1.2547,-0.35025 4.40776,-0.84702 7.00677,-1.10395 10.18705,-1.00703 13.42747,-0.58068 28.02743,3.68772 2.41998,0.7075 5.86633,1.52153 7.65857,1.80899 1.79225,0.28744 3.62525,0.58972 4.07336,0.67174 2.09626,0.38368 11.67464,-0.11127 14.70552,-0.75996 z m -88.51249,-13.23713 c -1.52239,-6.20868 -4.57473,-15.72245 -8.98705,-28.01158 -1.48019,-4.12259 -3.0424,-8.49626 -3.47158,-9.71925 -2.49969,-7.12295 -3.75406,-20.44575 -3.04869,-32.38022 0.31581,-5.34311 0.29579,-6.71561 -0.13787,-9.451 -0.85015,-5.36299 -3.50284,-13.72391 -5.87499,-18.51724 -2.45174,-4.95413 -6.60976,-11.96835 -9.61147,-16.21373 -4.10846,-5.81064 -11.15047,-12.0359 -20.391528,-18.02646 -11.94843,-7.745607 -16.79156,-11.117317 -21.47326,-14.949347 -6.54696,-5.35874 -9.45408,-8.11647 -12.00784,-11.39072 -1.11021,-1.42345 -2.31188,-2.93903 -2.67035,-3.36798 l -0.6518,-0.7799 -0.005,6.61826 c -0.003,4.7057 -0.16835,7.60715 -0.5684,10.04017 -0.894879,5.44295 -2.521839,24.468037 -2.521839,29.489687 0,9.46786 1.66782,17.29547 5.538809,25.99549 3.59056,8.06971 6.65305,12.2984 15.94892,22.02224 6.74332,7.05377 14.66459,13.62446 24.626578,20.42774 7.86866,5.37368 14.16891,10.48386 20.00475,16.22599 3.8544,3.79255 9.31124,10.31945 10.90664,13.04546 0.50654,0.86546 0.96744,1.52539 1.02426,1.46651 0.22083,-0.22881 -0.83784,-5.37966 -2.1091,-10.2616 -3.56096,-13.67519 -8.87153,-26.66764 -14.36876,-35.15357 -1.06318,-1.64119 -1.93305,-3.20243 -1.93305,-3.46941 0,-0.52418 -3.9013,-6.35632 -7.59258,-11.35031 -3.64734,-4.93456 -8.022498,-10.29941 -12.095118,-14.8311 -2.07726,-2.31143 -3.77683,-4.31962 -3.77683,-4.46264 0,-0.65306 0.75937,-0.0492 3.46393,2.7545 14.002508,14.51587 31.423868,41.6925 39.018338,60.86706 3.27028,8.2568 7.65705,23.67026 7.92862,27.85819 0.18892,2.91318 0.20168,2.94853 1.88411,5.21433 0.93167,1.25471 2.26601,3.18821 2.96521,4.29672 0.6992,1.1085 1.30527,1.98146 1.34681,1.93993 0.0415,-0.0415 -0.57003,-2.70834 -1.35906,-5.92622 z m 7.43153,-39.79625 c 2.61695,-3.16835 7.03281,-7.27522 11.20627,-10.42216 4.26368,-3.21498 10.4818,-6.74231 22.91124,-12.99685 12.39948,-6.23945 16.95442,-8.96692 21.3404,-12.77847 3.30342,-2.8708 5.06663,-4.96131 7.63269,-9.0497 10.5022,-16.73246 21.05175,-52.97206 20.02839,-68.800987 l -0.22265,-3.44405 -2.63875,0.20695 c -28.90787,2.26714 -50.77756,10.51042 -67.41063,25.408867 -1.74762,1.56537 -3.17748,2.96676 -3.17748,3.11418 0,0.14752 -0.84326,1.21553 -1.87391,2.37359 -11.74624,13.19819 -18.32456,26.31263 -20.92615,41.71811 -2.1548,12.75991 -1.06828,27.76966 2.97341,41.07605 l 0.69364,2.28362 0.87335,-2.90324 c 3.79151,-12.60374 13.97122,-29.55951 27.11813,-45.16911 4.60454,-5.46707 13.95576,-14.81836 17.37304,-17.37321 1.43221,-1.07078 3.70534,-2.9559 5.05138,-4.18914 5.21229,-4.7756 18.05629,-14.52962 18.52077,-14.06514 0.092,0.092 0.10599,0.2165 0.0314,0.2769 -0.0748,0.0605 -1.62308,1.22693 -3.44089,2.59231 -22.90874,17.20721 -42.65511,39.87388 -52.29801,60.03241 -2.08039,4.34906 -4.27599,10.57113 -4.83017,13.68816 -0.1912,1.07546 -0.71399,3.8847 -1.16175,6.24277 -0.86354,4.54771 -1.00192,5.9852 -0.52685,5.47322 0.15802,-0.1703 1.39694,-1.65308 2.75321,-3.29508 z m 88.53636,-10.71967 c 13.26985,-4.03199 28.15485,-24.44851 37.94474,-52.04561 l 1.45537,-4.10262 -1.37644,0.60887 c -0.75702,0.33486 -6.11785,1.80225 -11.91295,3.26082 -10.80485,2.71951 -13.2412,3.48242 -16.75593,5.24706 -6.98367,3.50627 -15.45959,11.09315 -21.00336,18.8004 -3.10368,4.31488 -9.4255,17.41648 -10.79215,22.36612 -0.3079,1.1151 -0.29582,1.13915 0.38838,0.77377 3.67899,-1.96468 14.86123,-9.33293 19.396,-12.78052 1.67575,-1.27399 3.36225,-2.53331 3.74779,-2.79848 1.49726,-1.02977 7.60244,-5.69119 8.66956,-6.61934 0.76937,-0.66917 1.16903,-0.84544 1.26489,-0.55791 0.12864,0.3861 -5.66362,6.14139 -6.21686,6.17717 -0.13331,0.009 -1.37985,1.01205 -2.77011,2.22984 -1.39028,1.21779 -4.28761,3.56863 -6.43853,5.2241 -2.15089,1.65546 -4.71732,3.64719 -5.70317,4.42607 -3.0302,2.39407 -5.87701,4.28005 -9.5009,6.2942 -3.01353,1.67492 -3.39392,1.9783 -2.88164,2.29823 0.64772,0.4045 4.50157,1.23812 7.81999,1.69151 3.35667,0.4586 12.54973,0.1492 14.66532,-0.49368 z M 135.89038,131.66603 c 3.06965,-12.61571 5.46418,-23.44555 6.18861,-27.98953 0.93736,-5.879537 2.42079,-18.141737 2.63275,-21.762397 0.25667,-4.38482 -0.35795,-14.86111 -1.02128,-17.40783 -0.8936,-3.43071 -0.29326,-3.71632 0.79599,-0.3787 1.59143,4.87638 1.82956,7.26071 1.83051,18.32812 0.001,13.67406 -0.96833,22.875587 -3.96602,37.641017 -0.81877,4.03297 -1.55583,7.6993 -1.63789,8.14742 -0.082,0.4481 0.54044,-0.43181 1.3833,-1.95539 4.13778,-7.47947 8.78663,-13.5648 15.50892,-20.30117 5.20559,-5.21649 5.25319,-5.29142 7.28538,-11.473717 1.10081,-3.34879 2.93417,-10.81368 3.68181,-14.99121 0.49477,-2.7645 0.54802,-4.22318 0.35102,-9.61395 -0.43271,-11.84053 -3.13258,-21.82679 -9.05398,-33.48864 -4.45054,-8.76505 -9.75836,-16.04275 -17.02301,-23.34077 l -4.82683,-4.8489703 -1.55407,1.71545 c -2.31693,2.5574903 -6.82121,8.8282703 -9.26706,12.9013903 -7.31377,12.17985 -11.60339,24.59915 -13.12595,38.00234 -0.6719,5.91468 -0.63994,8.34576 0.15582,11.84584 0.36467,1.60411 0.79431,3.72315 0.95477,4.70898 0.52544,3.22842 3.17923,9.97099 7.76024,19.71672 1.34806,2.86788 3.15148,7.143117 4.0076,9.500517 3.33717,9.18921 5.56497,21.44903 5.55771,30.58471 -0.003,3.7178 0.25028,6.89502 0.49354,6.19203 0.062,-0.17924 1.36169,-5.45875 2.88815,-11.73226 z m -84.897137,10.17604 c 2.05333,-0.49311 1.99605,-0.20855 0.9002,-4.47284 l -0.79563,-3.09603 -1.81243,-0.22867 c -5.49975,-0.69388 -13.589511,-6.02302 -22.106151,-14.56244 -4.75058,-4.76331 -7.65509,-8.32339 -9.13684,-11.19911 -1.1005,-2.13581 -0.11449,-1.32409 2.33828,1.92489 3.74776,4.9644 7.82547,8.65607 14.96954,13.5523 6.801161,4.66121 14.224041,8.34203 14.957481,7.41703 0.0711,-0.0896 0.0254,-0.99371 -0.10145,-2.00908 -0.29081,-2.32761 -2.24897,-6.21196 -5.88736,-11.67859 -7.767361,-11.67036 -20.998671,-24.334327 -31.690191,-30.331367 -1.57372,-0.88274 -2.9609096,-1.60529 -3.0826396,-1.60572 -0.12178,-4e-4 -0.39549,0.84252 -0.60834,1.87316 -0.21287,1.03066 -0.50108,1.94724 -0.64047,2.03687 -0.43736,0.28121 -1.5848,6.22565 -1.97696,10.24184 -0.88114,9.023847 1.25453,18.591997 5.7740496,25.868757 1.81812,2.92729 6.66957,7.96374 9.24235,9.59477 5.53232,3.50723 12.39184,6.29162 17.435451,7.07727 2.52968,0.39405 9.91631,0.1504 12.22111,-0.40304 z M 177.44616,77.723563 c 1.79503,-2.29537 4.78357,-6.65969 6.64119,-9.69851 9.18398,-15.02367 12.46399,-18.63629 20.53296,-22.61528 1.81483,-0.89493 2.22907,-0.9966 2.47028,-0.6063 0.39353,0.63675 0.18869,0.88377 -1.40023,1.68858 -1.88911,0.95686 -5.06235,3.52488 -7.07006,5.72162 -2.3944,2.61989 -4.33286,5.60635 -7.99516,12.31773 -3.76962,6.90805 -5.91519,10.31666 -8.27634,13.14834 l -1.72425,2.06784 4.19287,-2.13292 c 9.94641,-5.05978 19.43616,-12.40658 25.52906,-19.76412 5.85806,-7.07398 9.75106,-15.87492 10.32502,-23.34184 0.11536,-1.50143 0.14062,-2.72985 0.056,-2.72985 -0.0847,0 -1.24286,0.37461 -2.57377,0.83247 -1.33091,0.45786 -4.63978,1.39958 -7.35306,2.09274 -10.25833,2.62068 -15.26189,5.52096 -22.2108,12.87434 -6.72848,7.12016 -10.07215,13.96154 -13.62147,27.87054 -0.80045,3.13674 -1.53438,5.95889 -1.63097,6.27144 -0.41735,1.35038 1.02244,-0.0501 4.10884,-3.99682 z m -66.75172,-3.08631 c -0.12008,-1.02858 -0.26214,-1.16891 -1.48255,-1.46462 -4.84305,-1.17342 -8.32975,-3.11614 -14.046698,-7.82649 -2.0667,-1.70279 -4.92722,-3.77253 -6.3567,-4.5994 -1.42947,-0.82688 -2.50744,-1.59501 -2.39549,-1.70696 0.42129,-0.42129 5.51893,2.66415 9.01755,5.45804 4.35391,3.47688 6.422168,4.83817 9.480008,6.23957 2.39074,1.09564 5.39578,1.89446 5.39578,1.43433 0,-0.14582 -0.77487,-1.04463 -1.72194,-1.99735 -0.94707,-0.95272 -2.54947,-2.77409 -3.56087,-4.0475 -2.45736,-3.09391 -12.573178,-13.03249 -15.337798,-15.06905 -4.13704,-3.04758 -10.25407,-4.92685 -16.06432,-4.93527 -2.58117,-0.003 -5.93834,0.37679 -7.24547,0.82123 -0.45882,0.15598 0.7934,1.95327 6.80443,9.76612 6.39518,8.31213 11.76976,13.38695 16.883,15.94143 4.78113,2.38853 8.0995,3.06444 15.207618,3.09759 l 5.55627,0.0259 z"
     id="path51-3"
     inkscape:label="Tronco Flat"
     inkscape:export-filename="..\..\Meu Drive\DEFINN\LENS\Mystic Garden\mystic-ico.svg"
     inkscape:export-xdpi="96"
     inkscape:export-ydpi="96"
     sodipodi:nodetypes="cssssssssssscssssssssscssssssssssssssssssssssssscsssssssssssscsssscssscsssssccsssssssssscssscssssssssssssssssssssssssssssssssssscssssscsssssscssscssssssssssssssssssssssssscsccssssssscssssssscsssssssssscssssssssssccssssssssssssssssssssccsssssscsssssscsssssscsssssscscsssssssssscsssssscssssscssssssssscssssssssssssscssssssssssssssssscssssssscsssssssssccssssssssssscsssscs" /></svg>
